solid test
 facet normal 0 0 0
  outer loop
   vertex 0.000000 0.000000 0.000000
   vertex 40.000000 0.000000 0.000000
   vertex 40.000000 20.000000 0.000000
  endloop
 endfacet
 facet normal 0 0 0
  outer loop
   vertex 0.000000 0.000000 0.000000
   vertex 40.000000 20.000000 0.000000
   vertex 0.000000 20.000000 0.000000
  endloop
 endfacet
 facet normal 0 0 0
  outer loop
   vertex 0.000000 0.000000 10.000000
   vertex 40.000000 20.000000 10.000000
   vertex 40.000000 0.000000 10.000000
  endloop
 endfacet
 facet normal 0 0 0
  outer loop
   vertex 0.000000 0.000000 10.000000
   vertex 0.000000 20.000000 10.000000
   vertex 40.000000 20.000000 10.000000
  endloop
 endfacet
 facet normal 0 0 0
  outer loop
   vertex 0.000000 0.000000 0.000000
   vertex 0.000000 0.000000 10.000000
   vertex 40.000000 0.000000 10.000000
  endloop
 endfacet
 facet normal 0 0 0
  outer loop
   vertex 0.000000 0.000000 0.000000
   vertex 40.000000 0.000000 10.000000
   vertex 40.000000 0.000000 0.000000
  endloop
 endfacet
 facet normal 0 0 0
  outer loop
   vertex 40.000000 0.000000 0.000000
   vertex 40.000000 0.000000 10.000000
   vertex 40.000000 20.000000 10.000000
  endloop
 endfacet
 facet normal 0 0 0
  outer loop
   vertex 40.000000 0.000000 0.000000
   vertex 40.000000 20.000000 10.000000
   vertex 40.000000 20.000000 0.000000
  endloop
 endfacet
 facet normal 0 0 0
  outer loop
   vertex 40.000000 20.000000 0.000000
   vertex 40.000000 20.000000 10.000000
   vertex 0.000000 20.000000 10.000000
  endloop
 endfacet
 facet normal 0 0 0
  outer loop
   vertex 40.000000 20.000000 0.000000
   vertex 0.000000 20.000000 10.000000
   vertex 0.000000 20.000000 0.000000
  endloop
 endfacet
 facet normal 0 0 0
  outer loop
   vertex 0.000000 20.000000 0.000000
   vertex 0.000000 20.000000 10.000000
   vertex 0.000000 0.000000 10.000000
  endloop
 endfacet
 facet normal 0 0 0
  outer loop
   vertex 0.000000 20.000000 0.000000
   vertex 0.000000 0.000000 10.000000
   vertex 0.000000 0.000000 0.000000
  endloop
 endfacet
endsolid test
